<svg xmlns="http://www.w3.org/2000/svg" viewBox="0 0 151 151"><defs><style>.cls-1{fill:#fff;}.cls-2{fill:#f9305b;}</style></defs><title>Asset 38</title><g id="Layer_2" data-name="Layer 2"><g id="Layer_1-2" data-name="Layer 1"><rect class="cls-1" width="151" height="151" rx="38.33" ry="38.33"/><path class="cls-2" d="M113.12,79.14h0l-.1-.27c-.07-.19-.14-.38-.22-.57L100.75,45.78,93.48,56.19,75.53,22S47.21,64.11,40,74.85h0a20.26,20.26,0,0,0,2.52,25.6l18.6,18.61a20.29,20.29,0,0,0,28.69,0l18.61-18.61A20.23,20.23,0,0,0,113.12,79.14Zm-11,13.63L82.18,112.68a9.41,9.41,0,0,1-13.33,0L48.94,92.77a9.43,9.43,0,0,1,0-13.33L68.85,59.53a9.42,9.42,0,0,1,13.33,0l19.91,19.91a9.4,9.4,0,0,1,0,13.33Z"/><circle class="cls-2" cx="75.52" cy="72.69" r="5.86" transform="translate(-29.28 74.69) rotate(-45)"/><circle class="cls-2" cx="75.52" cy="99.52" r="5.86" transform="translate(-20.85 20.01) rotate(-13.28)"/><circle class="cls-2" cx="88.93" cy="86.11" r="5.86"/><circle class="cls-2" cx="62.1" cy="86.11" r="5.86"/></g></g></svg>
